<svg aria-hidden="true" style="position: absolute; width: 0; height: 0; overflow: hidden;" version="1.1" xmlns="http://www.w3.org/2000/svg" xmlns:xlink="http://www.w3.org/1999/xlink">
<defs>
<symbol id="icon-close" viewBox="0 0 32 32">
<path d="M24.122 7.152c0.521 0.521 0.521 1.365 0 1.886l-6.599 6.599 6.599 6.601c0.521 0.521 0.521 1.365 0 1.886s-1.365 0.521-1.886 0l-6.599-6.601-6.601 6.601c-0.521 0.521-1.365 0.521-1.886 0s-0.521-1.365 0-1.886l6.601-6.601-6.601-6.599c-0.521-0.521-0.521-1.365 0-1.886s1.365-0.521 1.886 0l6.601 6.599 6.599-6.599c0.521-0.521 1.365-0.521 1.886 0z"></path>
</symbol>
<symbol id="icon-menu" viewBox="0 0 59 32">
<path d="M58.667 31.971h-58.667v-5.205h58.667v5.205zM58.667 18.958h-58.667v-5.205h58.667v5.205zM58.667 5.946h-58.667v-5.205h58.667v5.205z"></path>
</symbol>
<symbol id="icon-logo" viewBox="0 0 246 32">
<path d="M199.403 6.099h42.555l4.199-4.88h-60.939l-16.908 29.512h39.491l2.837-4.88h-22.582l4.312-7.436h22.582l2.724-4.88h-22.469l4.199-7.436zM166.834 13.535h-16.795l2.723-4.764c1.135-1.975 2.156-2.673 3.858-2.673s2.27 1.394 1.362 3.137h17.135l1.702-3.137c1.248-2.324 1.248-4.88-1.816-4.88h-30.186c-2.723 0-4.88 0.349-6.469 3.021l-5.333 9.295c-1.475 2.673-1.361 4.88 2.27 4.88h17.362l-2.837 5.112c-0.794 1.394-1.816 2.324-4.199 2.324-2.043 0-1.929-1.394-1.021-2.788h-17.022l-2.043 3.486c-1.248 2.208-0.227 4.183 2.723 4.183h29.959c2.723 0 5.106-1.278 6.469-3.602l5.106-8.714c1.136-2.208 0.568-4.88-2.95-4.88z"></path>
<path d="M239.737 6.959c-1.385 0-2.508 1.115-2.508 2.477 0 1.39 1.123 2.505 2.508 2.505 1.378 0 2.495-1.115 2.495-2.505-0-1.362-1.117-2.477-2.495-2.477zM239.737 11.453c-1.13 0-2.033-0.882-2.033-2.018 0-1.101 0.903-1.99 2.033-1.99 1.116 0 2.019 0.889 2.019 1.99 0 1.136-0.903 2.018-2.019 2.018zM128.135 1.219h-25.646c-3.518 0-8.057 0-10.781 4.88l-11.348 19.752c-1.589 2.672-0.227 4.88 2.723 4.88h29.845c3.064 0 4.993-0.929 7.376-4.88l11.348-19.752c1.475-2.556-0.795-4.88-3.518-4.88zM113.723 8.771l-8.511 14.756c-1.135 2.092-2.156 2.324-4.766 2.324s-3.291-0.929-2.496-2.324l8.624-14.756c1.248-2.208 2.723-2.673 4.88-2.673s3.405 0.697 2.27 2.673zM83.197 1.219h-32.91l-14.185 24.632h-31.32l-4.782 4.88h67.991c4.198 0 5.56-2.092 6.468-3.718l3.404-6.042c0.908-1.627 0.908-3.486-0.908-4.531 1.819 0 4.312-1.278 5.788-3.951l3.404-5.926c1.702-2.905-0.34-5.345-2.95-5.345zM66.288 21.087l-1.702 2.788c-0.454 0.93-1.248 1.975-3.177 1.975h-8.398l4.315-7.436h8.168c1.475 0 1.475 1.394 0.794 2.672zM73.438 8.771l-1.702 2.788c-0.454 0.929-1.248 1.975-3.178 1.975h-8.397l4.312-7.436h8.171c1.475 0 1.475 1.394 0.794 2.673z"></path>
<path d="M241.018 8.787c0-0.233-0.103-0.48-0.31-0.6-0.214-0.12-0.448-0.134-0.683-0.134h-1.22v2.787h0.414v-1.284h0.49l0.799 1.284h0.476l-0.848-1.284c0.496-0.014 0.882-0.219 0.882-0.769zM239.674 9.21h-0.455v-0.84h0.724c0.351 0 0.661 0.049 0.661 0.409 0 0.501-0.537 0.43-0.93 0.43z"></path>
</symbol>
</defs>
</svg>
